<svg xmlns="http://www.w3.org/2000/svg" version="1.1" xmlns:xlink="http://www.w3.org/1999/xlink" xmlns:svgjs="http://svgjs.dev/svgjs" width="512" height="512"><svg xmlns="http://www.w3.org/2000/svg" viewBox="0 0 24 24" width="512" height="512">
  <path class="fill" d="M12,22.002c-5.514,0-10-4.486-10-10s4.486-10,10-10s10,4.486,10,10S17.514,22.002,12,22.002z M12,4.002c-4.411,0-8,3.589-8,8s3.589,8,8,8s8-3.589,8-8S16.411,4.002,12,4.002z"></path>
  <polygon class="fill" points="16.949,15.002 14,12.002 16.949,9.002 15,7.053 12,10.002 9,7.002 7.051,9.002 10,12.002 7.051,15.002 9,16.951 12,14.002 15,16.951"></polygon>
</svg><style>@media (prefers-color-scheme: light) { :root { filter: none; } }
@media (prefers-color-scheme: dark) { :root { filter: invert(100%); } }
</style></svg>