<svg xmlns="http://www.w3.org/2000/svg" viewBox="0 0 24 24">
  <g style="transform: rotate(-90deg); transform-origin: 50%;">
    <polygon class="fill" points="11,4.413 11,11.999 13,11.999 13,4.413 15.293,6.706 16.707,5.292 12,0.585 7.293,5.292 8.707,6.706"/>
    <path class="fill" d="M19.066,6.927l-1.414,1.414c3.118,3.119,3.117,8.195-0.002,11.314 c-1.51,1.512-3.52,2.344-5.656,2.344s-4.145-0.832-5.655-2.344c-3.12-3.119-3.12-8.195-0.001-11.314L4.924,6.927 c-3.898,3.899-3.898,10.244,0,14.143c1.889,1.889,4.399,2.93,7.07,2.93c2.672,0,5.183-1.041,7.07-2.93 C22.964,17.171,22.965,10.826,19.066,6.927z"/>
  </g>
</svg>
